<?xml version="1.0" encoding="UTF-8" standalone="no"?>
<!DOCTYPE svg PUBLIC "-//W3C//DTD SVG 1.1//EN"
 "http://www.w3.org/Graphics/SVG/1.1/DTD/svg11.dtd">
<!-- Generated by graphviz version 2.40.1 (20161225.0304)
 -->
<!-- Title: %3 Pages: 1 -->
<svg width="314pt" height="274pt"
 viewBox="0.00 0.00 314.30 273.70" xmlns="http://www.w3.org/2000/svg" xmlns:xlink="http://www.w3.org/1999/xlink">
<g id="graph0" class="graph" transform="scale(1 1) rotate(0) translate(4 269.6967)">
<title>%3</title>
<polygon fill="#ffffff" stroke="transparent" points="-4,4 -4,-269.6967 310.2967,-269.6967 310.2967,4 -4,4"/>
<!-- ini -->
<g id="node1" class="node">
<title>ini</title>
<ellipse fill="#000000" stroke="#000000" cx="1.8" cy="-151.8483" rx="1.8" ry="1.8"/>
</g>
<!-- s0 -->
<g id="node2" class="node">
<title>s0</title>
<ellipse fill="none" stroke="#000000" cx="67.6" cy="-151.8483" rx="27" ry="18"/>
<text text-anchor="middle" x="67.6" y="-148.1483" font-family="Times,serif" font-size="14.00" fill="#000000">s0</text>
</g>
<!-- ini&#45;&gt;s0 -->
<g id="edge1" class="edge">
<title>ini&#45;&gt;s0</title>
<path fill="none" stroke="#000000" d="M3.6983,-151.8483C7.9356,-151.8483 18.702,-151.8483 30.2151,-151.8483"/>
<polygon fill="#000000" stroke="#000000" points="30.3795,-155.3484 40.3795,-151.8483 30.3794,-148.3484 30.3795,-155.3484"/>
</g>
<!-- s1 -->
<g id="node3" class="node">
<title>s1</title>
<ellipse fill="none" stroke="#000000" cx="188.6" cy="-242.8483" rx="27" ry="18"/>
<text text-anchor="middle" x="188.6" y="-239.1483" font-family="Times,serif" font-size="14.00" fill="#000000">s1</text>
</g>
<!-- s0&#45;&gt;s1 -->
<g id="edge2" class="edge">
<title>s0&#45;&gt;s1</title>
<path fill="none" stroke="#000000" d="M83.9682,-166.2977C92.3739,-173.5558 102.8697,-182.3726 112.6,-189.8483 128.1283,-201.7787 146.0738,-214.3472 160.6264,-224.2493"/>
<polygon fill="#000000" stroke="#000000" points="158.9516,-227.3418 169.197,-230.0406 162.8708,-221.5417 158.9516,-227.3418"/>
<text text-anchor="middle" x="128.1" y="-215.6483" font-family="Times,serif" font-size="14.00" fill="#000000">=</text>
</g>
<!-- s2 -->
<g id="node4" class="node">
<title>s2</title>
<ellipse fill="none" stroke="#000000" cx="188.6" cy="-183.8483" rx="18.724" ry="18.724"/>
<ellipse fill="none" stroke="#000000" cx="188.6" cy="-183.8483" rx="22.6977" ry="22.6977"/>
<text text-anchor="middle" x="188.6" y="-180.1483" font-family="Times,serif" font-size="14.00" fill="#000000">s2</text>
</g>
<!-- s0&#45;&gt;s2 -->
<g id="edge3" class="edge">
<title>s0&#45;&gt;s2</title>
<path fill="none" stroke="#000000" d="M92.9656,-158.5566C111.3774,-163.4258 136.433,-170.0521 156.2793,-175.3007"/>
<polygon fill="#000000" stroke="#000000" points="155.5575,-178.7301 166.12,-177.9032 157.3472,-171.9627 155.5575,-178.7301"/>
<text text-anchor="middle" x="128.1" y="-174.6483" font-family="Times,serif" font-size="14.00" fill="#000000">;</text>
</g>
<!-- s3 -->
<g id="node5" class="node">
<title>s3</title>
<ellipse fill="none" stroke="#000000" cx="188.6" cy="-119.8483" rx="18.724" ry="18.724"/>
<ellipse fill="none" stroke="#000000" cx="188.6" cy="-119.8483" rx="22.6977" ry="22.6977"/>
<text text-anchor="middle" x="188.6" y="-116.1483" font-family="Times,serif" font-size="14.00" fill="#000000">s3</text>
</g>
<!-- s0&#45;&gt;s3 -->
<g id="edge4" class="edge">
<title>s0&#45;&gt;s3</title>
<path fill="none" stroke="#000000" d="M92.9656,-145.1401C111.3774,-140.2708 136.433,-133.6445 156.2793,-128.396"/>
<polygon fill="#000000" stroke="#000000" points="157.3472,-131.7339 166.12,-125.7935 155.5575,-124.9666 157.3472,-131.7339"/>
<text text-anchor="middle" x="128.1" y="-142.6483" font-family="Times,serif" font-size="14.00" fill="#000000">|</text>
</g>
<!-- s4 -->
<g id="node6" class="node">
<title>s4</title>
<ellipse fill="none" stroke="#000000" cx="188.6" cy="-22.8483" rx="18.724" ry="18.724"/>
<ellipse fill="none" stroke="#000000" cx="188.6" cy="-22.8483" rx="22.6977" ry="22.6977"/>
<text text-anchor="middle" x="188.6" y="-19.1483" font-family="Times,serif" font-size="14.00" fill="#000000">s4</text>
</g>
<!-- s0&#45;&gt;s4 -->
<g id="edge5" class="edge">
<title>s0&#45;&gt;s4</title>
<path fill="none" stroke="#000000" d="M81.9554,-136.5438C102.6949,-114.4331 141.2461,-73.3331 165.8749,-47.0759"/>
<polygon fill="#000000" stroke="#000000" points="168.4423,-49.4548 172.7309,-39.7667 163.3368,-44.6658 168.4423,-49.4548"/>
<text text-anchor="middle" x="128.1" y="-105.6483" font-family="Times,serif" font-size="14.00" fill="#000000">!,=,;,|</text>
</g>
<!-- s5 -->
<g id="node7" class="node">
<title>s5</title>
<ellipse fill="none" stroke="#000000" cx="283.4483" cy="-242.8483" rx="18.724" ry="18.724"/>
<ellipse fill="none" stroke="#000000" cx="283.4483" cy="-242.8483" rx="22.6977" ry="22.6977"/>
<text text-anchor="middle" x="283.4483" y="-239.1483" font-family="Times,serif" font-size="14.00" fill="#000000">s5</text>
</g>
<!-- s1&#45;&gt;s5 -->
<g id="edge6" class="edge">
<title>s1&#45;&gt;s5</title>
<path fill="none" stroke="#000000" d="M215.7797,-242.8483C226.4825,-242.8483 238.8788,-242.8483 250.1145,-242.8483"/>
<polygon fill="#000000" stroke="#000000" points="250.4381,-246.3484 260.4381,-242.8483 250.438,-239.3484 250.4381,-246.3484"/>
<text text-anchor="middle" x="238.1" y="-246.6483" font-family="Times,serif" font-size="14.00" fill="#000000">&gt;</text>
</g>
<!-- s4&#45;&gt;s4 -->
<g id="edge7" class="edge">
<title>s4&#45;&gt;s4</title>
<path fill="none" stroke="#000000" d="M179.8197,-44.2843C178.7357,-54.5949 181.6625,-63.6967 188.6,-63.6967 193.0443,-63.6967 195.8427,-59.9613 196.995,-54.5657"/>
<polygon fill="#000000" stroke="#000000" points="200.5032,-54.4083 197.3803,-44.2843 193.5081,-54.1461 200.5032,-54.4083"/>
<text text-anchor="middle" x="188.6" y="-67.4967" font-family="Times,serif" font-size="14.00" fill="#000000">!,=,;,|</text>
</g>
</g>
</svg>
